# xmcd CD database file
# 
# Track frame offsets:
# 	150
# 	21895
# 	35882
# 	54760
# 	71582
# 	85510
# 	103175
# 	112462
# 	133262
# 	157435
# 	178897
# 	197297
# 	211497
# 
# Disc length: 3179 seconds
# 
# Submitted via: Nero 6, 6, 0, 13
# 
# Revision: 0
# Processed by: cddbd v1.5.1PL0 Copyright (c) Steve Scherf et al.
#
DISCID=c40c690d
DTITLE=Various Artist - Best of Mapleshade Vol. 2 - 13 Shades of Blue
DYEAR=1900
DGENRE=
TTITLE0=John Preveti Quartet - Wabash Blues
TTITLE1=Blue Rider Trio - Black Betty
TTITLE2=C-Nuts - Jimmy Jazz
TTITLE3=Midnight Blue - Kansas City Medley
TTITLE4=Bob Willoughby - Going to Chicago
TTITLE5=Al Lee - Rainy Changes
TTITLE6=Archie Edwards - Hen's Cackle
TTITLE7=Fallen Angels - Just Like That
TTITLE8=Bad Influence - Sweet Home Chicago
TTITLE9=Joe Stanley Sextet - I Need You
TTITLE10=John Dee and Fris - Diggin My Potatoes
TTITLE11=Harvey Thomas Young - Bad Feelings
TTITLE12=Silent Bear - Bear Foot Stomp
EXTD=www.mapleshaderecords.com
EXTT0=www.mapleshaderecords.com
EXTT1=www.mapleshaderecords.com
EXTT2=www.mapleshaderecords.com
EXTT3=www.mapleshaderecords.com
EXTT4=www.mapleshaderecords.com
EXTT5=www.mapleshaderecords.com
EXTT6=www.mapleshaderecords.com
EXTT7=www.mapleshaderecords.com
EXTT8=www.mapleshaderecords.com
EXTT9=www.mapleshaderecords.com
EXTT10=www.mapleshaderecords.com
EXTT11=www.mapleshaderecords.com
EXTT12=www.mapleshaderecords.com
PLAYORDER=
